<mxfile host="app.diagrams.net" modified="2021-12-06T18:25:31.031Z" agent="5.0 (Windows NT 10.0; Win64; x64) AppleWebKit/537.36 (KHTML, like Gecko) Chrome/96.0.4664.45 Safari/537.36" etag="vANjvcLwgHswWRa1LLks" version="15.8.9" type="github">
  <diagram id="GPRTH1XO5GVFrSitWA3q" name="Page-1">
    <mxGraphModel dx="868" dy="496" grid="1" gridSize="10" guides="1" tooltips="1" connect="1" arrows="1" fold="1" page="1" pageScale="1" pageWidth="1169" pageHeight="827" math="0" shadow="0">
      <root>
        <mxCell id="0" />
        <mxCell id="1" parent="0" />
        <mxCell id="wDg_GPdmXXDGr456VIaK-26" style="edgeStyle=orthogonalEdgeStyle;rounded=0;orthogonalLoop=1;jettySize=auto;html=1;exitX=1;exitY=0.5;exitDx=0;exitDy=0;entryX=0;entryY=0.5;entryDx=0;entryDy=0;endArrow=none;endFill=0;" edge="1" parent="1" source="wDg_GPdmXXDGr456VIaK-7" target="wDg_GPdmXXDGr456VIaK-8">
          <mxGeometry relative="1" as="geometry" />
        </mxCell>
        <mxCell id="wDg_GPdmXXDGr456VIaK-37" value="n" style="edgeLabel;html=1;align=center;verticalAlign=middle;resizable=0;points=[];" vertex="1" connectable="0" parent="wDg_GPdmXXDGr456VIaK-26">
          <mxGeometry x="-0.7846" y="4" relative="1" as="geometry">
            <mxPoint as="offset" />
          </mxGeometry>
        </mxCell>
        <mxCell id="wDg_GPdmXXDGr456VIaK-38" value="1" style="edgeLabel;html=1;align=center;verticalAlign=middle;resizable=0;points=[];" vertex="1" connectable="0" parent="wDg_GPdmXXDGr456VIaK-26">
          <mxGeometry x="0.8154" y="2" relative="1" as="geometry">
            <mxPoint as="offset" />
          </mxGeometry>
        </mxCell>
        <mxCell id="wDg_GPdmXXDGr456VIaK-35" style="edgeStyle=orthogonalEdgeStyle;rounded=0;orthogonalLoop=1;jettySize=auto;html=1;exitX=0.5;exitY=1;exitDx=0;exitDy=0;entryX=0.5;entryY=0;entryDx=0;entryDy=0;endArrow=none;endFill=0;" edge="1" parent="1" source="wDg_GPdmXXDGr456VIaK-7" target="wDg_GPdmXXDGr456VIaK-13">
          <mxGeometry relative="1" as="geometry" />
        </mxCell>
        <mxCell id="wDg_GPdmXXDGr456VIaK-7" value="Empregado" style="whiteSpace=wrap;html=1;align=center;" vertex="1" parent="1">
          <mxGeometry x="430" y="470" width="100" height="40" as="geometry" />
        </mxCell>
        <mxCell id="wDg_GPdmXXDGr456VIaK-20" style="edgeStyle=orthogonalEdgeStyle;rounded=0;orthogonalLoop=1;jettySize=auto;html=1;exitX=0.5;exitY=1;exitDx=0;exitDy=0;entryX=0.5;entryY=0;entryDx=0;entryDy=0;endArrow=none;endFill=0;" edge="1" parent="1" source="wDg_GPdmXXDGr456VIaK-8" target="wDg_GPdmXXDGr456VIaK-19">
          <mxGeometry relative="1" as="geometry" />
        </mxCell>
        <mxCell id="wDg_GPdmXXDGr456VIaK-25" style="edgeStyle=orthogonalEdgeStyle;rounded=0;orthogonalLoop=1;jettySize=auto;html=1;exitX=0.5;exitY=0;exitDx=0;exitDy=0;entryX=0.5;entryY=1;entryDx=0;entryDy=0;endArrow=none;endFill=0;" edge="1" parent="1" source="wDg_GPdmXXDGr456VIaK-8" target="wDg_GPdmXXDGr456VIaK-24">
          <mxGeometry relative="1" as="geometry" />
        </mxCell>
        <mxCell id="wDg_GPdmXXDGr456VIaK-8" value="Departamento" style="whiteSpace=wrap;html=1;align=center;" vertex="1" parent="1">
          <mxGeometry x="660" y="470" width="100" height="40" as="geometry" />
        </mxCell>
        <mxCell id="wDg_GPdmXXDGr456VIaK-36" style="edgeStyle=orthogonalEdgeStyle;rounded=0;orthogonalLoop=1;jettySize=auto;html=1;exitX=1;exitY=0.5;exitDx=0;exitDy=0;entryX=0;entryY=0.5;entryDx=0;entryDy=0;endArrow=none;endFill=0;" edge="1" parent="1" source="wDg_GPdmXXDGr456VIaK-9" target="wDg_GPdmXXDGr456VIaK-7">
          <mxGeometry relative="1" as="geometry" />
        </mxCell>
        <mxCell id="wDg_GPdmXXDGr456VIaK-40" value="1" style="edgeLabel;html=1;align=center;verticalAlign=middle;resizable=0;points=[];" vertex="1" connectable="0" parent="wDg_GPdmXXDGr456VIaK-36">
          <mxGeometry x="-0.7692" y="1" relative="1" as="geometry">
            <mxPoint as="offset" />
          </mxGeometry>
        </mxCell>
        <mxCell id="wDg_GPdmXXDGr456VIaK-41" value="n" style="edgeLabel;html=1;align=center;verticalAlign=middle;resizable=0;points=[];" vertex="1" connectable="0" parent="wDg_GPdmXXDGr456VIaK-36">
          <mxGeometry x="0.8" relative="1" as="geometry">
            <mxPoint x="3" y="-2" as="offset" />
          </mxGeometry>
        </mxCell>
        <mxCell id="wDg_GPdmXXDGr456VIaK-9" value="Projeto" style="whiteSpace=wrap;html=1;align=center;" vertex="1" parent="1">
          <mxGeometry x="200" y="470" width="100" height="40" as="geometry" />
        </mxCell>
        <mxCell id="wDg_GPdmXXDGr456VIaK-13" value="matricula" style="ellipse;whiteSpace=wrap;html=1;align=center;fontStyle=4;" vertex="1" parent="1">
          <mxGeometry x="430" y="580" width="100" height="40" as="geometry" />
        </mxCell>
        <mxCell id="wDg_GPdmXXDGr456VIaK-15" style="edgeStyle=orthogonalEdgeStyle;rounded=0;orthogonalLoop=1;jettySize=auto;html=1;exitX=0.5;exitY=1;exitDx=0;exitDy=0;entryX=0.5;entryY=0;entryDx=0;entryDy=0;endArrow=none;endFill=0;" edge="1" parent="1" source="wDg_GPdmXXDGr456VIaK-14" target="wDg_GPdmXXDGr456VIaK-7">
          <mxGeometry relative="1" as="geometry" />
        </mxCell>
        <mxCell id="wDg_GPdmXXDGr456VIaK-14" value="nome" style="ellipse;whiteSpace=wrap;html=1;align=center;" vertex="1" parent="1">
          <mxGeometry x="430" y="360" width="100" height="40" as="geometry" />
        </mxCell>
        <mxCell id="wDg_GPdmXXDGr456VIaK-19" value="cod" style="ellipse;whiteSpace=wrap;html=1;align=center;fontStyle=4;" vertex="1" parent="1">
          <mxGeometry x="660" y="580" width="100" height="40" as="geometry" />
        </mxCell>
        <mxCell id="wDg_GPdmXXDGr456VIaK-24" value="nome" style="ellipse;whiteSpace=wrap;html=1;align=center;" vertex="1" parent="1">
          <mxGeometry x="660" y="360" width="100" height="40" as="geometry" />
        </mxCell>
        <mxCell id="wDg_GPdmXXDGr456VIaK-29" style="edgeStyle=orthogonalEdgeStyle;rounded=0;orthogonalLoop=1;jettySize=auto;html=1;exitX=0.5;exitY=0;exitDx=0;exitDy=0;entryX=0.5;entryY=1;entryDx=0;entryDy=0;endArrow=none;endFill=0;" edge="1" parent="1" source="wDg_GPdmXXDGr456VIaK-28" target="wDg_GPdmXXDGr456VIaK-9">
          <mxGeometry relative="1" as="geometry" />
        </mxCell>
        <mxCell id="wDg_GPdmXXDGr456VIaK-28" value="cod" style="ellipse;whiteSpace=wrap;html=1;align=center;fontStyle=4;" vertex="1" parent="1">
          <mxGeometry x="200" y="580" width="100" height="40" as="geometry" />
        </mxCell>
        <mxCell id="wDg_GPdmXXDGr456VIaK-31" style="edgeStyle=orthogonalEdgeStyle;rounded=0;orthogonalLoop=1;jettySize=auto;html=1;exitX=0.5;exitY=1;exitDx=0;exitDy=0;endArrow=none;endFill=0;" edge="1" parent="1" source="wDg_GPdmXXDGr456VIaK-30" target="wDg_GPdmXXDGr456VIaK-9">
          <mxGeometry relative="1" as="geometry" />
        </mxCell>
        <mxCell id="wDg_GPdmXXDGr456VIaK-30" value="nome" style="ellipse;whiteSpace=wrap;html=1;align=center;" vertex="1" parent="1">
          <mxGeometry x="200" y="360" width="100" height="40" as="geometry" />
        </mxCell>
      </root>
    </mxGraphModel>
  </diagram>
</mxfile>
